<svg xmlns="http://www.w3.org/2000/svg" version="1.1" xmlns:xlink="http://www.w3.org/1999/xlink" xmlns:svgjs="http://svgjs.dev/svgjs" width="1109" height="1049"><svg id="SvgjsSvg1001" xmlns="http://www.w3.org/2000/svg" viewBox="0 0 1109 1049">
  <defs>
    <style>
      .cls-1 {
        stroke: #ff94dc;
        stroke-linecap: round;
        stroke-miterlimit: 10;
      }

      .cls-1, .cls-2 {
        fill: #ff94dc;
      }

      .cls-3 {
        fill: #081f00;
      }
    </style>
  </defs>
  <g>
    <path class="cls-3" d="M554.5,1039c-73.58,0-144.95-13.63-212.12-40.5-64.85-25.95-123.09-63.09-173.1-110.38-49.97-47.26-89.19-102.28-116.58-163.54-28.34-63.37-42.7-130.69-42.7-200.08s14.37-136.71,42.7-200.08c27.39-61.25,66.61-116.27,116.58-163.54,50-47.3,108.24-84.44,173.1-110.38,67.18-26.88,138.54-40.5,212.12-40.5s144.95,13.63,212.12,40.5c64.85,25.95,123.09,63.09,173.1,110.38,49.97,47.26,89.19,102.28,116.58,163.54,28.34,63.37,42.7,130.69,42.7,200.08s-14.37,136.71-42.7,200.08c-27.39,61.25-66.61,116.27-116.58,163.54-50,47.3-108.24,84.44-173.1,110.38-67.17,26.88-138.54,40.5-212.12,40.5Z"></path>
    <path class="cls-2" d="M554.5,20c72.3,0,142.42,13.39,208.41,39.79,63.68,25.48,120.85,61.94,169.94,108.37,49.01,46.36,87.47,100.31,114.32,160.35,27.76,62.08,41.83,128.02,41.83,195.99s-14.07,133.92-41.83,195.99c-26.85,60.05-65.31,114-114.32,160.35-49.08,46.43-106.26,82.89-169.94,108.37-65.99,26.4-136.11,39.79-208.41,39.79s-142.42-13.39-208.41-39.79c-63.68-25.48-120.85-61.94-169.94-108.37-49.01-46.36-87.47-100.31-114.32-160.35-27.76-62.08-41.83-128.02-41.83-195.99s14.07-133.92,41.83-195.99c26.85-60.05,65.31-114,114.32-160.35,49.09-46.43,106.26-82.89,169.94-108.37,65.99-26.4,136.11-39.79,208.41-39.79M554.5,0C248.26,0,0,234.83,0,524.5s248.26,524.5,554.5,524.5,554.5-234.83,554.5-524.5S860.74,0,554.5,0h0Z"></path>
  </g>
  <polyline class="cls-1" points="99.97 242.55 87.02 779.28 108.6 817.32 114.11 843.26 131.37 843.26 148.87 185.48"></polyline>
  <polyline class="cls-1" points="142.32 431.68 301.34 72.7 361.76 44.16 181.74 440.39 157.8 493.08 139.63 533.07"></polyline>
  <polygon class="cls-1" points="157.8 493.08 181.74 440.39 445.18 1025.22 417.13 1025.22 157.8 493.08"></polygon>
  <polygon class="cls-1" points="505.35 440.39 505.59 1033.37 526.45 1033.37 545.63 1033.37 554.5 440.39 804.78 67.26 762.35 44.16 505.35 440.39"></polygon>
  <polyline class="cls-1" points="361.76 44.16 505.35 440.39 535.08 394.56 394.4 22.19"></polyline>
  <polyline class="cls-1" points="804.78 67.26 601.25 1033.37 633.85 1033.37 655.07 1033.37 834.99 89 1037.8 753.46 1066.57 697.75 866.26 90.7"></polyline>
  <path class="cls-1" d="M719.79,693.64l290.68-29.86,9.07,29.86-305.34,29.34"></path>
</svg><style>@media (prefers-color-scheme: light) { :root { filter: none; } }
@media (prefers-color-scheme: dark) { :root { filter: none; } }
</style></svg>